# xmcd
#
# Track frame offsets: 
#        150
#        16520
#        30505
#        44670
#        61215
#        77090
#        94115
#        113302
#        124007
#        137027
#        152265
#        170677
#        186937
#
# Disc length: 2724 seconds
#
# Revision: 1
# Processed by: cddbd v1.5.2PL0 Copyright (c) Steve Scherf et al.
# Submitted via: ExactAudioCopyFreeDBPlugin 1.0
#
DISCID=960aa20d
DTITLE=Kings Of Convenience - E. Glambek Boe, E. Oye
DYEAR=09
DGENRE=
TTITLE0=24-25
TTITLE1=Mrs. Cold
TTITLE2=Me In You
TTITLE3=Boat Behind
TTITLE4=Rule My World
TTITLE5=My Ship Isn't Pretty
TTITLE6=Renegade
TTITLE7=Power Of Not Knowing
TTITLE8=Peacetime Resistance
TTITLE9=Freedom And It's Owner
TTITLE10=Riot On An Empty Street
TTITLE11=Second To Numb
TTITLE12=Scars Of Land
EXTD=
EXTT0=
EXTT1=
EXTT2=
EXTT3=
EXTT4=
EXTT5=
EXTT6=
EXTT7=
EXTT8=
EXTT9=
EXTT10=
EXTT11=
EXTT12=
PLAYORDER=
